<svg preserveAspectRatio="none" overflow="visible" style="display: block;" width="32" height="32" viewBox="0 0 32 32" fill="none" xmlns="http://www.w3.org/2000/svg">
<g id="Icon">
<path id="vector" fill-rule="evenodd" clip-rule="evenodd" d="M16 3.46667C13.5467 3.46667 11.5467 5.45333 11.5467 7.92V15.4667C11.5467 17.92 13.5467 19.92 16 19.92C18.4533 19.92 20.4533 17.92 20.4533 15.4667V7.92C20.4533 5.45333 18.4533 3.46667 16 3.46667ZM13.9467 7.92C13.9467 6.78667 14.8667 5.86667 16 5.86667C17.1333 5.86667 18.0533 6.78667 18.0533 7.92V15.4667C18.0533 16.6 17.1333 17.52 16 17.52C14.8667 17.52 13.9467 16.6 13.9467 15.4667V7.92ZM8.13333 14.2667C8.8 14.2667 9.33333 14.8 9.33333 15.4667C9.33333 19.1467 12.32 22.1333 16 22.1333C19.68 22.1333 22.6667 19.1467 22.6667 15.4667C22.6667 14.8 23.2 14.2667 23.8667 14.2667C24.5333 14.2667 25.0667 14.8 25.0667 15.4667C25.0667 20.0667 21.5867 23.8533 17.2 24.4667V27.3333C17.2 28 16.6667 28.5333 16 28.5333C15.3333 28.5333 14.8 28 14.8 27.3333V24.4667C10.4133 23.8533 6.93333 20.0667 6.93333 15.4667C6.93333 14.8 7.46667 14.2667 8.13333 14.2667Z" fill="white"/>
</g>
</svg>
